<?xml version="1.0" standalone="no"?><!DOCTYPE svg PUBLIC "-//W3C//DTD SVG 1.1//EN" "http://www.w3.org/Graphics/SVG/1.1/DTD/svg11.dtd"><svg class="icon" width="200px" height="200.00px" viewBox="0 0 1024 1024" version="1.1" xmlns="http://www.w3.org/2000/svg"><path fill="#333333" d="M512 0C230.4 0 0 230.4 0 512s230.4 512 512 512 512-230.4 512-512S793.6 0 512 0z m0 985.6C252.8 985.6 38.4 771.2 38.4 512S252.8 38.4 512 38.4 985.6 252.8 985.6 512 771.2 985.6 512 985.6zM668.8 473.6h-313.6c-22.4 0-38.4 19.2-38.4 38.4s19.2 38.4 38.4 38.4h313.6c22.4 0 38.4-19.2 38.4-38.4s-16-38.4-38.4-38.4z" /></svg>