<?xml version="1.0" standalone="no"?><!DOCTYPE svg PUBLIC "-//W3C//DTD SVG 1.1//EN" "http://www.w3.org/Graphics/SVG/1.1/DTD/svg11.dtd"><svg class="icon" width="200px" height="200.00px" viewBox="0 0 1024 1024" version="1.1" xmlns="http://www.w3.org/2000/svg"><path fill="#333333" d="M836.736 944.992 187.232 944.992c-59.776 0-108.256-48.448-108.256-108.256L78.976 187.264c0-59.776 48.48-108.256 108.256-108.256l649.504 0c59.776 0 108.256 48.448 108.256 108.256l0 649.504C944.992 896.544 896.544 944.992 836.736 944.992zM890.88 187.264c0-29.888-24.224-54.112-54.112-54.112L187.232 133.152c-29.888 0-54.112 24.224-54.112 54.112l0 649.504c0 29.888 24.256 54.112 54.112 54.112l649.504 0c29.888 0 54.112-24.224 54.112-54.112L890.848 187.264zM674.368 539.072l-135.328 0 0 135.328c0 14.944-12.128 27.072-27.072 27.072-14.944 0-27.072-12.096-27.072-27.072l0-135.328-135.328 0c-14.944 0-27.072-12.128-27.072-27.072 0-14.944 12.128-27.072 27.072-27.072l135.328 0 0-135.328c0-14.944 12.096-27.072 27.072-27.072 14.944 0 27.072 12.128 27.072 27.072l0 135.328 135.328 0c14.944 0 27.072 12.128 27.072 27.072C701.44 526.944 689.312 539.072 674.368 539.072z" /></svg>